<svg id="Layer_2" xmlns:rdf="http://www.w3.org/1999/02/22-rdf-syntax-ns#" style="enable-background:new 0 0 301.7 83" xmlns="http://www.w3.org/2000/svg" xml:space="preserve" version="1.1" y="83" x="302" xmlns:cc="http://creativecommons.org/ns#" xmlns:dc="http://purl.org/dc/elements/1.1/" viewBox="0 0 302 83"><style id="style3" type="text/css">
	.st0{fill:#0F0087;}
	.st1{fill:#FB9A0C;}
</style><g id="g5"><g id="g7"><path id="path9" class="st0" d="m13.2 15.8h15.3l5 20.6h0.1l5-20.6h15.4v35h-10.2v-22.5h-0.1l-6.1 22.4h-8l-6.1-22.4h-0.1v22.4h-10.2v-34.9z"/><path id="path11" class="st0" d="m82.2 45.1c0 1.9 0.1 4.1 1.2 5.7h-9.9c-0.2-0.7-0.4-1.7-0.3-2.4h-0.2c-2.1 2.4-5 3-8.2 3-4.9 0-9-2.4-9-7.7 0-8 9.4-7.7 14.4-8.7 1.3-0.2 2.6-0.6 2.6-2.3s-1.6-2.4-3.2-2.4c-3 0-3.6 1.5-3.6 2.6h-9c0.3-7.2 7.1-8.3 13.1-8.3 12.2 0 12.1 5 12.1 9.9v10.6zm-9.3-5.8c-1.2 0.6-2.5 0.9-3.8 1.2-2.2 0.5-3.3 1-3.3 2.7 0 1.2 1.3 2.4 3 2.4 2.2 0 3.9-1.3 4.1-4v-2.3z"/><path id="path13" class="st0" d="m85.6 15.8h9.7v35h-9.7v-35z"/><path id="path15" class="st0" d="m123.6 45.1c0 1.9 0.1 4.1 1.2 5.7h-9.9c-0.2-0.7-0.4-1.7-0.3-2.4h-0.1c-2.1 2.4-5 3-8.2 3-4.9 0-9-2.4-9-7.7 0-8 9.4-7.7 14.4-8.7 1.3-0.2 2.6-0.6 2.6-2.3s-1.6-2.4-3.2-2.4c-3 0-3.6 1.5-3.6 2.6h-9c0.3-7.2 7.1-8.3 13.1-8.3 12.2 0 12.1 5 12.1 9.9v10.6zm-9.3-5.8c-1.2 0.6-2.5 0.9-3.8 1.2-2.2 0.5-3.3 1-3.3 2.7 0 1.2 1.3 2.4 3 2.4 2.2 0 3.9-1.3 4.1-4v-2.3z"/><path id="path17" class="st0" d="m126.5 25.3h9.3v4.1h0.1c1.6-3 3.6-4.7 7.2-4.7 1 0 1.9 0.1 2.8 0.4v8.6c-1-0.3-1.9-0.6-3.8-0.6-3.8 0-5.9 2.3-5.9 7.7v10h-9.7v-25.5z"/><path id="path19" class="st0" d="m156.5 22.6h-9.7v-6.8h9.7v6.8zm-9.7 2.7h9.7v25.4h-9.7v-25.4z"/><path id="path21" class="st0" d="m184.9 45.1c0 1.9 0.1 4.1 1.2 5.7h-9.9c-0.2-0.7-0.4-1.7-0.3-2.4h-0.1c-2.1 2.4-5 3-8.2 3-4.9 0-9-2.4-9-7.7 0-8 9.4-7.7 14.4-8.7 1.3-0.2 2.6-0.6 2.6-2.3s-1.6-2.4-3.2-2.4c-3 0-3.6 1.5-3.6 2.6h-9c0.3-7.2 7.1-8.3 13.1-8.3 12.2 0 12.1 5 12.1 9.9v10.6zm-9.3-5.8c-1.2 0.6-2.5 0.9-3.8 1.2-2.2 0.5-3.3 1-3.3 2.7 0 1.2 1.3 2.4 3 2.4 2.2 0 3.9-1.3 4.1-4v-2.3z"/><path id="path23" class="st1" d="m213.8 47.2c-2.4 3.1-6.1 4.4-9.9 4.4-10.3 0-16.7-8-16.7-18 0-13.3 9.4-18.7 17.2-18.7 8.9 0 14.6 4.9 16.1 13.1h-10.3c-0.4-2.5-2.5-4.4-5.1-4.4-7.4 0-7.2 7.8-7.2 10.2 0 3.3 1.3 9 7.9 9 2.5 0 5-1.3 5.6-3.9h-4.8v-7.5h14.4v19.3h-6.8l-0.4-3.5z"/><path id="path25" class="st1" d="m224.4 15.8h29v9h-18.2v4.4h16.5v8.3h-16.5v4.4h18.7v9h-29.5v-35.1z"/><path id="path27" class="st1" d="m257 15.8h11l10.2 18.7h0.1v-18.7h10.2v35h-10.5l-10.7-19.1h-0.1v19.1h-10.2v-35z"/></g><g id="g29"><path id="path31" class="st0" d="m23 67.8h-1.2l-0.3-1.3c-1 1.2-2 1.6-3.3 1.6-3.3 0-5.3-2.6-5.3-5.8 0-3.1 2-5.8 5.3-5.8 2.4 0 4.4 1.3 4.7 3.8h-1.9c-0.2-1.4-1.4-2.2-2.8-2.2-2.4 0-3.3 2.1-3.3 4.2s1 4.2 3.3 4.2c2 0 3-1.2 3.1-3h-2.9v-1.5h4.6v5.8z"/><path id="path33" class="st0" d="m25.1 56.8h7.9v1.7h-6v2.9h5.5v1.6h-5.5v3.2h6.1v1.7h-8v-11.1z"/><path id="path35" class="st0" d="m34.7 56.8h2l5 8.1v-8.1h1.8v11h-2l-5-8.1v8.1h-1.8v-11z"/><path id="path37" class="st0" d="m55.9 62.3c0 3.1-2 5.8-5.3 5.8s-5.3-2.6-5.3-5.8c0-3.1 2-5.8 5.3-5.8s5.3 2.7 5.3 5.8zm-8.6 0c0 2.1 1 4.2 3.3 4.2s3.3-2.1 3.3-4.2-1-4.2-3.3-4.2-3.3 2.1-3.3 4.2z"/><path id="path39" class="st0" d="m57.6 56.8h2.7l3 8.6 3-8.6h2.7v11h-1.8v-8.5l-3 8.5h-1.6l-3-8.5v8.5h-1.8v-11z"/><path id="path41" class="st0" d="m71.3 56.8h1.9v11h-1.9v-11z"/><path id="path43" class="st0" d="m83 60.3c-0.3-1.3-1.1-2.2-2.7-2.2-2.4 0-3.3 2.1-3.3 4.2s1 4.2 3.3 4.2c1.7 0 2.6-1.3 2.8-2.9h1.9c-0.2 2.6-2 4.4-4.7 4.4-3.3 0-5.3-2.6-5.3-5.8 0-3.1 2-5.8 5.3-5.8 2.5 0 4.4 1.4 4.7 3.8h-2z"/><path id="path45" class="st0" d="m91 56.8h7.9v1.7h-6v2.9h5.5v1.6h-5.5v3.2h6.1v1.7h-8v-11.1z"/><path id="path47" class="st0" d="m100.7 56.8h4.9c3.1 0 3.7 2 3.7 3.4s-0.6 3.4-3.7 3.4h-2.9v4.2h-1.9v-11zm1.9 5.2h2.8c0.9 0 1.9-0.4 1.9-1.8s-0.9-1.8-1.9-1.8h-2.8v3.6z"/><path id="path49" class="st0" d="m111 56.8h1.9v11h-1.9v-11z"/><path id="path51" class="st0" d="m115.3 56.8h4.6c3.4 0 4.8 2.5 4.8 5.5s-1.5 5.5-4.8 5.5h-4.6v-11zm1.9 9.4h1.9c3 0 3.7-1.7 3.7-3.9s-0.6-3.9-3.7-3.9h-1.9v7.8z"/><path id="path53" class="st0" d="m126.4 56.8h7.9v1.7h-6v2.9h5.5v1.6h-5.5v3.2h6.1v1.7h-8v-11.1z"/><path id="path55" class="st0" d="m136 56.8h2.7l3 8.6 3-8.6h2.7v11h-1.8v-8.5l-3 8.5h-1.6l-3-8.5v8.5h-2v-11z"/><path id="path57" class="st0" d="m149.8 56.8h1.9v11h-1.9v-11z"/><path id="path59" class="st0" d="m164 62.3c0 3.1-2 5.8-5.3 5.8s-5.3-2.6-5.3-5.8c0-3.1 2-5.8 5.3-5.8 3.3 0.1 5.3 2.7 5.3 5.8zm-8.6 0c0 2.1 1 4.2 3.3 4.2 2.4 0 3.3-2.1 3.3-4.2s-1-4.2-3.3-4.2c-2.3 0-3.3 2.1-3.3 4.2z"/><path id="path61" class="st0" d="m165.7 56.8h1.9v9.3h5.6v1.7h-7.5v-11z"/><path id="path63" class="st0" d="m184.5 62.3c0 3.1-2 5.8-5.3 5.8s-5.3-2.6-5.3-5.8c0-3.1 2-5.8 5.3-5.8 3.4 0.1 5.3 2.7 5.3 5.8zm-8.6 0c0 2.1 1 4.2 3.3 4.2 2.4 0 3.3-2.1 3.3-4.2s-1-4.2-3.3-4.2c-2.3 0-3.3 2.1-3.3 4.2z"/><path id="path65" class="st0" d="m195.9 67.8h-1.2l-0.3-1.3c-1 1.2-2 1.6-3.3 1.6-3.3 0-5.3-2.6-5.3-5.8 0-3.1 2-5.8 5.3-5.8 2.4 0 4.4 1.3 4.7 3.8h-1.9c-0.2-1.4-1.4-2.2-2.8-2.2-2.4 0-3.3 2.1-3.3 4.2s1 4.2 3.3 4.2c2 0 3-1.2 3.1-3h-2.9v-1.5h4.7v5.8z"/><path id="path67" class="st0" d="m200.8 63.5l-4.1-6.7h2.2l2.9 4.9 2.9-4.9h2.2l-4.1 6.7v4.3h-1.9v-4.3z"/><path id="path69" class="st0" d="m212.1 56.8h2l5 8.1v-8.1h1.8v11h-2l-5-8.1v8.1h-1.8v-11z"/><path id="path71" class="st0" d="m223.3 56.8h7.9v1.7h-6v2.9h5.5v1.6h-5.5v3.2h6.1v1.7h-8v-11.1z"/><path id="path73" class="st0" d="m232 56.8h8.9v1.7h-3.5v9.3h-1.9v-9.3h-3.5v-1.7z"/><path id="path75" class="st0" d="m241.1 56.8h2l2 8.4 2.2-8.4h2l2.2 8.4 2-8.4h2l-3 11h-2l-2.2-8.4-2.2 8.4h-2l-3-11z"/><path id="path77" class="st0" d="m266.6 62.3c0 3.1-2 5.8-5.3 5.8s-5.3-2.6-5.3-5.8c0-3.1 2-5.8 5.3-5.8 3.4 0.1 5.3 2.7 5.3 5.8zm-8.6 0c0 2.1 1 4.2 3.3 4.2 2.4 0 3.3-2.1 3.3-4.2s-1-4.2-3.3-4.2c-2.3 0-3.3 2.1-3.3 4.2z"/><path id="path79" class="st0" d="m268.4 56.8h5.3c2.4 0 3.6 1.1 3.6 3 0 2.1-1.5 2.6-1.8 2.8 0.7 0.1 1.6 0.6 1.6 2.3 0 1.3 0.2 2.4 0.6 2.9h-2.1c-0.3-0.5-0.3-1.1-0.3-1.6 0-2-0.4-2.9-2.2-2.9h-2.8v4.5h-1.9v-11zm1.9 5h3.2c1.2 0 1.9-0.6 1.9-1.8 0-1.4-0.9-1.7-1.9-1.7h-3.1v3.5z"/><path id="path81" class="st0" d="m279.2 56.8h1.9v5l4.9-5h2.4l-4.4 4.4 4.7 6.6h-2.4l-3.6-5.3-1.6 1.6v3.7h-1.9v-11z"/></g></g></svg>
